inDegrees=no
num_controls=7
num_derivatives=13
num_iterations=77
num_multipliers=7
num_parameters=0
num_slacks=7
num_states=26
objective=0.503253
objective_accelerations=0.009676
objective_balance=0.002400
objective_effort=0.027025
objective_height=0.458625
objective_ligament=0.005525
solver_duration=1039.706382
status=Solve_Succeeded
success=true
DataType=double
version=3
OpenSimVersion=4.5
endheader
time	/jointset/ground_pelvis/pelvis_tilt/value	/jointset/ground_pelvis/pelvis_tx/value	/jointset/ground_pelvis/pelvis_ty/value	/jointset/hip_r/hip_flexion_r/value	/jointset/hip_r/hip_adduction_r/value	/jointset/hip_r/hip_rotation_r/value	/jointset/back/lumbar_extension/value	/jointset/patellofemoral_r/patellar_flexion_r/value	/jointset/knee_r/knee_flexion_r/value	/jointset/knee_r/knee_adduction_r/value	/jointset/knee_r/knee_rotation_r/value	/jointset/ankle_r/ankle_angle_r/value	/jointset/subtalar_r/subtalar_angle_r/value	/jointset/ground_pelvis/pelvis_tilt/speed	/jointset/ground_pelvis/pelvis_tx/speed	/jointset/ground_pelvis/pelvis_ty/speed	/jointset/hip_r/hip_flexion_r/speed	/jointset/hip_r/hip_adduction_r/speed	/jointset/hip_r/hip_rotation_r/speed	/jointset/back/lumbar_extension/speed	/jointset/patellofemoral_r/patellar_flexion_r/speed	/jointset/knee_r/knee_flexion_r/speed	/jointset/knee_r/knee_adduction_r/speed	/jointset/knee_r/knee_rotation_r/speed	/jointset/ankle_r/ankle_angle_r/speed	/jointset/subtalar_r/subtalar_angle_r/speed	/forceset/tau_hip_flexion_r	/forceset/tau_hip_adduction_r	/forceset/tau_hip_rotation_r	/forceset/tau_knee_flexion_r	/forceset/tau_ankle_angle_r	/forceset/tau_subtalar_angle_r	/forceset/tau_lumbar_extension	lambda_cid13_p0	lambda_cid14_p0	lambda_cid14_p1	lambda_cid14_p2	lambda_cid14_p3	lambda_cid14_p4	lambda_cid14_p5	/jointset/ground_pelvis/pelvis_tilt/accel	/jointset/ground_pelvis/pelvis_tx/accel	/jointset/ground_pelvis/pelvis_ty/accel	/jointset/hip_r/hip_flexion_r/accel	/jointset/hip_r/hip_adduction_r/accel	/jointset/hip_r/hip_rotation_r/accel	/jointset/back/lumbar_extension/accel	/jointset/patellofemoral_r/patellar_flexion_r/accel	/jointset/knee_r/knee_flexion_r/accel	/jointset/knee_r/knee_adduction_r/accel	/jointset/knee_r/knee_rotation_r/accel	/jointset/ankle_r/ankle_angle_r/accel	/jointset/subtalar_r/subtalar_angle_r/accel	gamma_cid13_p0	gamma_cid14_p0	gamma_cid14_p1	gamma_cid14_p2	gamma_cid14_p3	gamma_cid14_p4	gamma_cid14_p5
0.5	0.1711023666305622	0.1469424785855434	0.9341093825629936	0.09739982044701948	-0.2305605589687136	-0.1893713790443415	-0.2728490143301839	0.3811988821955032	0.3811988821955007	0.09860445093121867	0.1741480417881483	0.2706623491409352	0.05911479402800122	0.4753886347035754	0.1238963269491107	-0.06028181201098193	-0.2263880383994724	-0.02652871174701194	0.1626354567821763	-0.5910172615740522	0.806627778837301	0.8066277788373173	-0.1174026309159805	-0.0006474718202558179	0.6119115147006463	0.1427530966684226	0.107338363349379	-0.04199995869997212	-0.004171469013646404	-0.3092374776645501	0.01886782257914485	-0.02781989090508436	0.009669296780183663	-42.71913403546282	-38.21989365374847	-13.94048346070736	-2.838810543729673	11.27768009815746	-689.8540487719818	61.34832801410906	-0.3876007731652724	-0.1607105702652214	-0.1330641665147086	0.1270471407859474	-0.05002632306597887	-0.2661082004789789	0.5290060262816558	-0.7369746360979483	-0.7369746360979543	0.3205423629034477	0.007775552542848656	-0.5775570241335042	-0.1275473131333249	-4.696459031891048e-08	-2.933277685766801e-08	5.008534063766308e-07	-3.776695561718331e-07	-3.083313357475786e-08	-2.240384573051652e-08	6.371185089391678e-07
0.51	0.1758360970148348	0.1481732682033909	0.9335000605135212	0.09514268306232535	-0.2308285937331769	-0.1877587344380485	-0.2787318703071896	0.3892272521879253	0.3892272521879004	0.09744707009364195	0.1741425547082074	0.2767516949832601	0.06053531991863807	0.4712932441349434	0.1222472052859546	-0.06156349268549679	-0.2250121782057621	-0.02707033518391621	0.1598607579222651	-0.5854832237247992	0.7989310670959467	0.7989310670959112	-0.1140779211272979	-0.0004301100989661526	0.6058749155966283	0.1413342134503201	0.1074569948596349	-0.04009633892579295	-0.003890696760554299	-0.3109975427771949	0.01351295401768412	-0.02700477805751989	0.01050167355480966	-42.63749087188025	-39.9482713184241	-13.96956308542973	-2.742273442667119	12.00312466479739	-690.8853630500099	61.03300172059348	-0.4301399907767279	-0.1691778422676108	-0.1228578381272078	0.1469426976175826	-0.05506742199931947	-0.2881138215451579	0.5762091795887544	-0.8032832733699706	-0.803283273377765	0.3378123821794818	0.03164001908486817	-0.6291314490521701	-0.1517052273513571	-4.367654332777387e-08	-2.53485234335341e-08	4.742833085495667e-07	-3.4971903965e-07	-3.043165304449016e-08	-1.466208803768405e-08	5.974201094693944e-07
0.52	0.1805269471350081	0.1493871336290215	0.932878494093262	0.09290012172735918	-0.2311018121456086	-0.1861748294389144	-0.2845572646026345	0.3971752022968907	0.3971752022968429	0.09632281177301798	0.1741398259529119	0.2827781908154415	0.06194112769685339	0.4668125818837286	0.1205114885057249	-0.06273068616831295	-0.2234728284538917	-0.02756544134068917	0.156887535350431	-0.5795249252618815	0.7905438021459602	0.7905438021458727	-0.1107781275254637	-9.580689116342857e-05	0.5993415126719612	0.139809474184112	0.1075756263698568	-0.0381927191516137	-0.003609924507462664	-0.3127576078898396	0.008158085456223485	-0.02618966520995525	0.01133405032943587	-42.54677840505622	-41.68213057595778	-13.99753797543926	-2.64827091002785	12.73577215981452	-692.0018817494484	60.74990766065224	-0.4646551096818582	-0.1780295936799411	-0.1101667281749689	0.1597450524179512	-0.04072286703990406	-0.305812942863962	0.6138581490145854	-0.8750852778243927	-0.8750852778243884	0.3155591255336917	0.03116384984539246	-0.6769177882633226	-0.1487185227544209	-4.047266163191938e-08	-2.210756817689902e-08	4.457151548904812e-07	-3.255150454990594e-07	-2.950798437753575e-08	-7.919046159432981e-09	5.613741895027446e-07
0.53	0.1851710756663087	0.1505832224466937	0.932245826273996	0.09067384912582864	-0.2313797636724715	-0.1846211409095316	-0.2903209516122728	0.4050359679284798	0.4050359679284677	0.09523154156577503	0.174140600465647	0.2887369605525147	0.06333113939160229	0.4619551149064476	0.1186933496919013	-0.06378294624586368	-0.2217580020840273	-0.0280214083173378	0.1538691577618508	-0.5731466359521014	0.7814997053901001	0.7814997053900231	-0.1074581929924314	0.0002281839238617205	0.5923343475654429	0.138168091096791	0.1076972576733299	-0.03637405736874617	-0.003325095069161498	-0.3145375645854906	0.002995022052775818	-0.0254422302685169	0.01215418111681575	-42.44719129586526	-43.35193832092265	-14.04800945829001	-2.545748323529101	13.41613447889468	-693.0300884134767	60.43143590759095	-0.5049957495327677	-0.1856506303185703	-0.09976680714158948	0.1809034953972737	-0.04753536665097387	-0.2970509274579897	0.6596904290141185	-0.9355069337667977	-0.935506933765064	0.3429001342434352	0.02959451192955166	-0.7243371040678409	-0.1755337824549764	-3.771879200433054e-08	-1.885252967235706e-08	4.221667002692821e-07	-3.016914046230158e-07	-2.896325071697003e-08	-1.04194291986037e-09	5.270204473208408e-07
0.54	0.18976488887628	0.1517607409552107	0.9316032336220352	0.08846543520122212	-0.2316621752198354	-0.1830970763081553	-0.2960188805074026	0.4128030055806503	0.4128030055806742	0.09417400860727376	0.1741439304494519	0.2946233143920784	0.06470400013933121	0.4567495176178543	0.1167974266746757	-0.06471565270727282	-0.2199010930691013	-0.02845744544093184	0.1509627497491529	-0.5663733023601454	0.771798206262241	0.7717982062621768	-0.1040306777771816	0.0004152873228214842	0.5848583331700545	0.1363792847801091	0.1078188889768033	-0.03455539558588121	-0.003040265630861159	-0.3163175212811415	-0.002168041350671716	-0.02469479532707825	0.01297431190419585	-42.33895971780516	-45.02833313934601	-14.09774995130318	-2.445494610547104	14.10803892816378	-694.1583427413194	60.14388610401389	-0.5342811719443422	-0.193586434360381	-0.08625600494660224	0.188161581430096	-0.03673689642898871	-0.2834190276875116	0.692867005449788	-1.006565752224141	-1.006565752224144	0.3370752619771993	0.003786366631872802	-0.7706876460373344	-0.178203168626567	-3.54628080692909e-08	-1.558190970204578e-08	4.041719552219148e-07	-2.782885801362197e-07	-2.883776429751518e-08	5.983483527982886e-09	4.945389018369541e-07
0.55	0.1943048718759646	0.1529189162788782	0.9309519086059599	0.08627649637176391	-0.2319486616482141	-0.1816022645996911	-0.3016470968223038	0.4204700130614273	0.4204700130613913	0.0931506265866594	0.1741490262281484	0.3004327270898292	0.06605853713121347	0.4511896584198899	0.1148253234993412	-0.06552893758178942	-0.2178530221348722	-0.02882127086786239	0.1479470304199249	-0.5592076969935088	0.7615127307348739	0.7615127307348623	-0.1006860001454189	0.000635193637552438	0.5769582783058883	0.1345287203189227	0.1079916461661629	-0.03282776679877406	-0.002775181618169273	-0.3181637807579472	-0.007063679512749303	-0.02400326419618167	0.01374223138333881	-42.22234581936633	-46.61552773721088	-14.15938893124266	-2.339645520707012	14.72920378433486	-695.1942738863926	59.84879892601247	-0.5754534110430972	-0.2008751969015644	-0.07580082669689847	0.2181765484986691	-0.03343437214419415	-0.3185743532219739	0.7377468462591993	-1.053115480279725	-1.053115480271821	0.3271541860424702	0.03575605763994214	-0.8095610593278595	-0.1883617716751398	-3.410278939010584e-08	-1.547044286892502e-08	3.854682111680942e-07	-2.753825522282452e-07	-2.735812362663649e-08	8.431965062320452e-09	4.847756712539929e-07
0.5600000000000001	0.1987875332602055	0.1540569999832359	0.9302930635215408	0.08410904759146391	-0.2322382321321257	-0.1801391952780558	-0.3072017891747409	0.4280314503814732	0.428031450381378	0.09215948937681565	0.1741572537287421	0.306161159908394	0.06739459274112181	0.4452851945291024	0.112779102812742	-0.06621966637601466	-0.2156030832374688	-0.02907425654755742	0.1446142723834103	-0.5516685098673272	0.7506841741160382	0.7506841741160791	-0.09758171562298378	0.001041631702132813	0.5686623573328584	0.1326830083853226	0.1081644033555064	-0.03110013801166715	-0.002510097605474311	-0.3200100402347533	-0.01195931767482705	-0.02331173306528574	0.01451015086248182	-42.09773810233859	-48.21019980382789	-14.2205147333847	-2.235960180314941	15.36587597173835	-696.3419352679837	59.58290991777653	-0.6032021105090276	-0.2084099366133271	-0.0617447888883311	0.2285351740649705	-0.01456894698190754	-0.3468267691473709	0.7675833573588294	-1.115181970517853	-1.115181970517852	0.2889966401122677	0.04109271660175939	-0.8498608678100875	-0.1772326631088231	-3.381792901794622e-08	-1.914995980043278e-08	3.659136683065297e-07	-2.970726802148559e-07	-2.425349785404925e-08	5.38811270045137e-09	5.022744185521417e-07
